<svg width="1310" height="900" viewBox="0 0 1310 900" fill="none" xmlns="http://www.w3.org/2000/svg">
<path d="M1157.03 -29.5008C1291.46 -37.1477 1390.96 -15.8808 1460.22 23.7896C1529.47 63.4527 1568.52 121.528 1582.04 187.583C1609.1 319.734 1533.99 483.962 1393.69 596.61C1323.43 653.022 1289.94 705.926 1274.4 757.128C1259.64 805.776 1261.11 852.851 1262.57 899.813C1262.65 902.258 1262.72 904.702 1262.8 907.146C1264.29 956.565 1264.85 1005.96 1245.66 1057.21C1226.48 1108.44 1187.55 1161.59 1109.96 1218.43C954.835 1332.08 764.942 1341.14 580.79 1292.38C396.637 1243.63 218.285 1137.08 86.3324 1019.63C20.446 960.977 -3.22946 893.416 1.30589 824.121C5.84304 754.799 38.618 683.698 85.7249 618.029C132.828 552.365 194.235 492.168 255.976 444.663C317.722 397.154 379.771 362.362 428.147 347.478C476.717 332.534 512.953 303.363 548.377 267.591C561.56 254.278 574.64 240.041 588.2 225.282C592.854 220.216 597.564 215.09 602.354 209.917C621.108 189.668 641.103 168.711 663.781 147.982C754.469 65.0938 888.153 -14.2062 1157.03 -29.5008Z" fill="url(#paint0_linear_3_850)"/>
<path d="M1157.03 -29.5008C1291.46 -37.1477 1390.96 -15.8808 1460.22 23.7896C1529.47 63.4527 1568.52 121.528 1582.04 187.583C1609.1 319.734 1533.99 483.962 1393.69 596.61C1323.43 653.022 1289.94 705.926 1274.4 757.128C1259.64 805.776 1261.11 852.851 1262.57 899.813C1262.65 902.258 1262.72 904.702 1262.8 907.146C1264.29 956.565 1264.85 1005.96 1245.66 1057.21C1226.48 1108.44 1187.55 1161.59 1109.96 1218.43C954.835 1332.08 764.942 1341.14 580.79 1292.38C396.637 1243.63 218.285 1137.08 86.3324 1019.63C20.446 960.977 -3.22946 893.416 1.30589 824.121C5.84304 754.799 38.618 683.698 85.7249 618.029C132.828 552.365 194.235 492.168 255.976 444.663C317.722 397.154 379.771 362.362 428.147 347.478C476.717 332.534 512.953 303.363 548.377 267.591C561.56 254.278 574.64 240.041 588.2 225.282C592.854 220.216 597.564 215.09 602.354 209.917C621.108 189.668 641.103 168.711 663.781 147.982C754.469 65.0938 888.153 -14.2062 1157.03 -29.5008Z" style="mix-blend-mode:soft-light"/>
<defs>
<linearGradient id="paint0_linear_3_850" x1="418" y1="199" x2="536" y2="879" gradientUnits="userSpaceOnUse">
<stop stop-color="#004FFF"/>
<stop offset="1" stop-color="#001647"/>
</linearGradient>
</defs>
</svg>

