<svg width="40" height="46" viewBox="0 0 40 46" fill="none" xmlns="http://www.w3.org/2000/svg">
<path d="M19.7871 5.53711C20.4316 5.53711 20.9707 5.32031 21.4043 4.88672C21.8379 4.44141 22.0547 3.89648 22.0547 3.25195C22.0547 2.61914 21.832 2.08008 21.3867 1.63477C20.9531 1.18945 20.4199 0.966797 19.7871 0.966797C19.166 0.966797 18.627 1.19531 18.1699 1.65234C17.7246 2.09766 17.502 2.63086 17.502 3.25195C17.502 3.88477 17.7246 4.42383 18.1699 4.86914C18.6152 5.31445 19.1543 5.53711 19.7871 5.53711ZM11.1562 10.5117C11.8008 10.5117 12.3398 10.2949 12.7734 9.86133C13.207 9.41602 13.4238 8.87109 13.4238 8.22656C13.4238 7.59375 13.2012 7.05469 12.7559 6.60938C12.3223 6.16406 11.7891 5.94141 11.1562 5.94141C10.5352 5.94141 9.99609 6.16992 9.53906 6.62695C9.09375 7.07227 8.87109 7.60547 8.87109 8.22656C8.87109 8.85938 9.09375 9.39844 9.53906 9.84375C9.98438 10.2891 10.5234 10.5117 11.1562 10.5117ZM28.418 10.5117C29.0625 10.5117 29.6016 10.2949 30.0352 9.86133C30.4805 9.41602 30.7031 8.87109 30.7031 8.22656C30.7031 7.59375 30.4805 7.05469 30.0352 6.60938C29.5898 6.16406 29.0508 5.94141 28.418 5.94141C27.7969 5.94141 27.2578 6.16992 26.8008 6.62695C26.3555 7.07227 26.1328 7.60547 26.1328 8.22656C26.1328 8.85938 26.3555 9.39844 26.8008 9.84375C27.2461 10.2891 27.7852 10.5117 28.418 10.5117ZM2.52539 15.5566C3.16992 15.5566 3.70898 15.3398 4.14258 14.9062C4.57617 14.4609 4.79297 13.916 4.79297 13.2715C4.79297 12.6387 4.57031 12.1055 4.125 11.6719C3.69141 11.2266 3.1582 11.0039 2.52539 11.0039C1.9043 11.0039 1.37109 11.2266 0.925781 11.6719C0.480469 12.1172 0.257812 12.6504 0.257812 13.2715C0.257812 13.9043 0.474609 14.4434 0.908203 14.8887C1.35352 15.334 1.89258 15.5566 2.52539 15.5566ZM19.7871 16.2598C20.6191 16.2598 21.3223 15.9727 21.8965 15.3984C22.4824 14.8242 22.7754 14.1152 22.7754 13.2715C22.7754 12.4512 22.4824 11.748 21.8965 11.1621C21.3105 10.5762 20.6074 10.2832 19.7871 10.2832C18.9785 10.2832 18.2754 10.582 17.6777 11.1797C17.0918 11.7656 16.7988 12.4629 16.7988 13.2715C16.7988 14.0918 17.0918 14.7949 17.6777 15.3809C18.2637 15.9668 18.9668 16.2598 19.7871 16.2598ZM36.9785 15.5566C37.623 15.5566 38.1621 15.3398 38.5957 14.9062C39.0293 14.4609 39.2461 13.916 39.2461 13.2715C39.2461 12.6387 39.0234 12.1055 38.5781 11.6719C38.1445 11.2266 37.6113 11.0039 36.9785 11.0039C36.3691 11.0039 35.8359 11.2266 35.3789 11.6719C34.9336 12.1172 34.7109 12.6504 34.7109 13.2715C34.7109 13.9043 34.9277 14.4434 35.3613 14.8887C35.8066 15.334 36.3457 15.5566 36.9785 15.5566ZM11.1562 21.2695C11.9883 21.2695 12.6914 20.9824 13.2656 20.4082C13.8516 19.834 14.1445 19.125 14.1445 18.2812C14.1445 17.4609 13.8516 16.7578 13.2656 16.1719C12.6797 15.5859 11.9766 15.293 11.1562 15.293C10.3359 15.293 9.63281 15.5918 9.04688 16.1895C8.46094 16.7754 8.16797 17.4727 8.16797 18.2812C8.16797 19.1016 8.45508 19.8047 9.0293 20.3906C9.61523 20.9766 10.3242 21.2695 11.1562 21.2695ZM28.418 21.2695C29.2617 21.2695 29.9707 20.9824 30.5449 20.4082C31.1191 19.834 31.4062 19.125 31.4062 18.2812C31.4062 17.4609 31.1133 16.7578 30.5273 16.1719C29.9414 15.5859 29.2383 15.293 28.418 15.293C27.6094 15.293 26.9062 15.5918 26.3086 16.1895C25.7227 16.7754 25.4297 17.4727 25.4297 18.2812C25.4297 19.1133 25.7168 19.8223 26.291 20.4082C26.877 20.9824 27.5859 21.2695 28.418 21.2695ZM2.52539 25.5762C3.16992 25.5762 3.70898 25.3594 4.14258 24.9258C4.57617 24.4805 4.79297 23.9414 4.79297 23.3086C4.79297 22.6758 4.57031 22.1367 4.125 21.6914C3.69141 21.2461 3.1582 21.0234 2.52539 21.0234C1.9043 21.0234 1.37109 21.2461 0.925781 21.6914C0.480469 22.1367 0.257812 22.6758 0.257812 23.3086C0.257812 23.9414 0.474609 24.4805 0.908203 24.9258C1.35352 25.3594 1.89258 25.5762 2.52539 25.5762ZM19.7871 26.7891C20.7598 26.7891 21.5801 26.4551 22.248 25.7871C22.9277 25.1074 23.2676 24.2812 23.2676 23.3086C23.2676 22.6641 23.1094 22.0781 22.793 21.5508C22.4766 21.0234 22.0547 20.6074 21.5273 20.3027C21.0117 19.9863 20.4316 19.8281 19.7871 19.8281C19.1543 19.8281 18.5742 19.9863 18.0469 20.3027C17.5195 20.6191 17.0977 21.041 16.7812 21.5684C16.4648 22.0957 16.3066 22.6758 16.3066 23.3086C16.3066 23.9414 16.4648 24.5215 16.7812 25.0488C17.0977 25.5762 17.5137 25.998 18.0293 26.3145C18.5566 26.6309 19.1426 26.7891 19.7871 26.7891ZM36.9785 25.5762C37.623 25.5762 38.1621 25.3594 38.5957 24.9258C39.0293 24.4805 39.2461 23.9414 39.2461 23.3086C39.2461 22.6758 39.0234 22.1367 38.5781 21.6914C38.1445 21.2461 37.6113 21.0234 36.9785 21.0234C36.3691 21.0234 35.8359 21.252 35.3789 21.709C34.9336 22.1543 34.7109 22.6875 34.7109 23.3086C34.7109 23.9414 34.9277 24.4805 35.3613 24.9258C35.8066 25.3594 36.3457 25.5762 36.9785 25.5762ZM11.1562 31.3242C11.9883 31.3242 12.6914 31.0371 13.2656 30.4629C13.8516 29.877 14.1445 29.168 14.1445 28.3359C14.1445 27.5039 13.8516 26.7949 13.2656 26.209C12.6797 25.623 11.9766 25.3301 11.1562 25.3301C10.3359 25.3301 9.63281 25.6289 9.04688 26.2266C8.46094 26.8125 8.16797 27.5156 8.16797 28.3359C8.16797 29.1562 8.45508 29.8594 9.0293 30.4453C9.61523 31.0312 10.3242 31.3242 11.1562 31.3242ZM28.418 31.3242C29.2617 31.3242 29.9707 31.0371 30.5449 30.4629C31.1191 29.877 31.4062 29.168 31.4062 28.3359C31.4062 27.5039 31.1133 26.7949 30.5273 26.209C29.9531 25.623 29.25 25.3301 28.418 25.3301C27.5977 25.3301 26.8945 25.6289 26.3086 26.2266C25.7227 26.8125 25.4297 27.5156 25.4297 28.3359C25.4297 29.1562 25.7168 29.8594 26.291 30.4453C26.877 31.0312 27.5859 31.3242 28.418 31.3242ZM2.52539 35.5957C3.18164 35.5957 3.7207 35.3789 4.14258 34.9453C4.57617 34.5117 4.79297 33.9727 4.79297 33.3281C4.79297 32.6836 4.57031 32.1445 4.125 31.7109C3.69141 31.2656 3.1582 31.043 2.52539 31.043C1.9043 31.043 1.37109 31.2715 0.925781 31.7285C0.480469 32.1738 0.257812 32.707 0.257812 33.3281C0.257812 33.9609 0.474609 34.5 0.908203 34.9453C1.35352 35.3789 1.89258 35.5957 2.52539 35.5957ZM19.7871 36.3164C20.6191 36.3164 21.3223 36.0293 21.8965 35.4551C22.4824 34.8691 22.7754 34.1602 22.7754 33.3281C22.7754 32.4961 22.4824 31.793 21.8965 31.2188C21.3223 30.6328 20.6191 30.3398 19.7871 30.3398C18.9785 30.3398 18.2754 30.6387 17.6777 31.2363C17.0918 31.8223 16.7988 32.5195 16.7988 33.3281C16.7988 34.1484 17.0918 34.8516 17.6777 35.4375C18.2637 36.0234 18.9668 36.3164 19.7871 36.3164ZM36.9785 35.5957C37.623 35.5957 38.1621 35.3789 38.5957 34.9453C39.0293 34.5117 39.2461 33.9727 39.2461 33.3281C39.2461 32.6953 39.0234 32.1562 38.5781 31.7109C38.1445 31.2656 37.6113 31.043 36.9785 31.043C36.3574 31.043 35.8242 31.2656 35.3789 31.7109C34.9336 32.1562 34.7109 32.6953 34.7109 33.3281C34.7109 33.9609 34.9277 34.5 35.3613 34.9453C35.8066 35.3789 36.3457 35.5957 36.9785 35.5957ZM11.1562 40.6406C11.8008 40.6406 12.3398 40.4238 12.7734 39.9902C13.207 39.5566 13.4238 39.0176 13.4238 38.373C13.4238 37.7402 13.2012 37.2012 12.7559 36.7559C12.3223 36.3105 11.7891 36.0879 11.1562 36.0879C10.5352 36.0879 9.99609 36.3105 9.53906 36.7559C9.09375 37.2129 8.87109 37.752 8.87109 38.373C8.87109 39.0059 9.09375 39.5391 9.53906 39.9727C9.98438 40.418 10.5234 40.6406 11.1562 40.6406ZM28.418 40.6406C29.0625 40.6406 29.6016 40.4238 30.0352 39.9902C30.4805 39.5566 30.7031 39.0176 30.7031 38.373C30.7031 37.7402 30.4805 37.2012 30.0352 36.7559C29.5898 36.3105 29.0508 36.0879 28.418 36.0879C27.7969 36.0879 27.2578 36.3105 26.8008 36.7559C26.3555 37.2012 26.1328 37.7402 26.1328 38.373C26.1328 39.0059 26.3555 39.5391 26.8008 39.9727C27.2461 40.418 27.7852 40.6406 28.418 40.6406ZM19.7871 45.6328C20.4316 45.6328 20.9707 45.4102 21.4043 44.9648C21.8379 44.5312 22.0547 43.9922 22.0547 43.3477C22.0547 42.7148 21.832 42.1758 21.3867 41.7305C20.9531 41.2969 20.4199 41.0801 19.7871 41.0801C19.166 41.0801 18.627 41.3027 18.1699 41.748C17.7246 42.1934 17.502 42.7266 17.502 43.3477C17.502 43.9805 17.7246 44.5195 18.1699 44.9648C18.6152 45.4102 19.1543 45.6328 19.7871 45.6328Z" fill="white"/>
</svg>
